<svg xmlns="http://www.w3.org/2000/svg" version="1.1" xmlns:xlink="http://www.w3.org/1999/xlink" xmlns:svgjs="http://svgjs.dev/svgjs" width="1440" height="560" preserveAspectRatio="none" viewBox="0 0 1440 560"><g mask="url(&quot;#SvgjsMask1003&quot;)" fill="none"><path d="M 0,269 C 57.6,239.8 172.8,146.4 288,123 C 403.2,99.6 460.8,153.2 576,152 C 691.2,150.8 748.8,98.8 864,117 C 979.2,135.2 1036.8,240.6 1152,243 C 1267.2,245.4 1382.4,151.8 1440,129L1440 560L0 560z" fill="rgba(185, 104, 168, 1)"></path><path d="M 0,348 C 96,378 288,498.8 480,498 C 672,497.2 768,337.2 960,344 C 1152,350.8 1344,494.4 1440,532L1440 560L0 560z" fill="rgba(130, 16, 104, 1)"></path></g><defs><mask id="SvgjsMask1003"><rect width="1440" height="560" fill="#ffffff"></rect></mask></defs></svg>